<?xml version="1.0" standalone="no"?>
<!DOCTYPE svg PUBLIC "-//W3C//DTD SVG 20010904//EN"
 "http://www.w3.org/TR/2001/REC-SVG-20010904/DTD/svg10.dtd">
<svg version="1.0" xmlns="http://www.w3.org/2000/svg"
 width="92.000000pt" height="92.000000pt" viewBox="0 0 92.000000 92.000000"
 preserveAspectRatio="xMidYMid meet">
<metadata>
Created by potrace 1.11, written by Peter Selinger 2001-2013
</metadata>
<g transform="translate(0.000000,92.000000) scale(0.100000,-0.100000)"
fill="#000000" stroke="none">
<path d="M403 870 c-24 -10 -35 -35 -29 -67 4 -18 -2 -24 -32 -34 -100 -31
-195 -124 -228 -221 -17 -51 -22 -144 -11 -198 10 -50 51 -123 93 -166 174
-179 470 -130 582 96 24 48 27 67 27 150 0 83 -3 102 -27 151 -47 95 -138 171
-233 195 -22 5 -26 11 -22 31 9 50 -61 87 -120 63z m-5 -164 c7 -35 -17 -62
-68 -75 -27 -7 -53 -18 -58 -24 -22 -28 -62 -171 -62 -221 0 -55 10 -73 46
-79 30 -4 46 -18 40 -33 -3 -7 -1 -16 4 -19 14 -9 12 -48 -3 -69 -13 -17 -16
-17 -50 13 -70 62 -107 153 -103 253 5 103 73 205 169 253 58 28 80 29 85 1z
m188 4 c56 -26 115 -82 143 -137 l21 -43 -52 0 c-48 0 -55 3 -70 30 -9 16 -37
40 -62 52 -41 19 -58 42 -58 76 -1 50 10 53 78 22z m170 -342 c-7 -29 -20 -67
-29 -84 -20 -38 -93 -114 -110 -114 -7 0 -17 16 -23 36 -10 29 -9 37 3 41 10
4 12 14 9 29 -7 28 5 31 38 9 22 -14 25 -14 40 0 9 9 14 20 11 24 -2 5 9 20
25 35 17 14 30 34 30 44 0 16 8 32 16 32 1 0 -3 -24 -10 -52z"/>
</g>
</svg>
